<mxfile host="app.diagrams.net" modified="2023-03-30T12:14:00.428Z" agent="Mozilla/5.0 (Windows NT 10.0; Win64; x64) AppleWebKit/537.36 (KHTML, like Gecko) Chrome/111.0.0.0 Safari/537.36" etag="GJcanmPnkDQdC5D9JhTf" version="21.1.1" type="github">
  <diagram name="Page-1" id="6kXm2e0ZVc-k5nqXNsLa">
    <mxGraphModel dx="1290" dy="541" grid="1" gridSize="10" guides="1" tooltips="1" connect="1" arrows="1" fold="1" page="1" pageScale="1" pageWidth="827" pageHeight="1169" math="0" shadow="0">
      <root>
        <mxCell id="0" />
        <mxCell id="1" parent="0" />
        <mxCell id="u_NKlWdGeOTiqMbMX1PV-1" value="Raspberry Pi 4B" style="swimlane;horizontal=0;whiteSpace=wrap;html=1;" vertex="1" parent="1">
          <mxGeometry x="90" y="400" width="650" height="130" as="geometry" />
        </mxCell>
        <mxCell id="u_NKlWdGeOTiqMbMX1PV-3" value="" style="image;aspect=fixed;html=1;points=[];align=center;fontSize=12;image=img/lib/azure2/iot/Industrial_IoT.svg;" vertex="1" parent="u_NKlWdGeOTiqMbMX1PV-1">
          <mxGeometry x="130" y="30" width="46.18" height="50" as="geometry" />
        </mxCell>
      </root>
    </mxGraphModel>
  </diagram>
</mxfile>
